<?xml version="1.0" encoding="utf-8"?><svg viewBox="0 0 92 39" xmlns="http://www.w3.org/2000/svg" xmlns:xlink="http://www.w3.org/1999/xlink"><style>:root>svg{display:none}:root>svg:target{display:block}</style><svg fill="none" viewBox="0 0 22 23" id="WhatsApp" xmlns="http://www.w3.org/2000/svg"><path d="M13.68 13.08h0c-.188.295-.72.944-.878 1.132a.546.546 0 01-.35.213c-.139.017-.28-.029-.427-.105a3.807 3.807 0 00-.17-.08 7.192 7.192 0 01-2.064-1.357h0c-.83-.771-1.39-1.72-1.551-2.009h0c-.098-.176-.108-.328-.055-.466.037-.096.107-.182.157-.243l5.338 2.915zm0 0c.077-.12.133-.141.174-.146.058-.007.132.013.263.063.116.044.506.235.912.439.402.201.806.409.942.48l.158.08c.068.035.125.063.176.092.085.049.117.08.13.102h0v.002a.474.474 0 01.016.103c.005.07.005.166-.005.28a3.585 3.585 0 01-.183.846c-.098.285-.393.58-.753.82-.357.238-.742.398-.976.435-.458.07-1.029.1-1.653-.107h0c-.396-.131-.9-.304-1.546-.595h0c-2.52-1.132-4.23-3.677-4.565-4.176l-.05-.075-.003-.003c-.07-.098-.341-.474-.595-.993-.257-.528-.492-1.193-.492-1.862 0-1.254.586-1.905.867-2.216l.053-.06 7.13 6.49zm-4.64-3.9h0c.063-.13.036-.244-.023-.369h0a33.214 33.214 0 01-.366-.906l-.182-.46-.3-.757c-.105-.263-.198-.343-.255-.37-.047-.024-.08-.024-.136-.023-.025 0-.055 0-.093-.002h0c-.156-.008-.335-.01-.517-.01L9.04 9.18zm0 0c-.04.082-.13.22-.252.393-.121.17-.268.364-.416.555l.668-.948zM1.7 17.132l.014-.058-.029-.053a11.583 11.583 0 01-1.443-5.625C.244 5.19 5.097.15 11.046.15c2.888.001 5.6 1.17 7.64 3.296l.109-.104-.109.104c2.041 2.126 3.165 4.952 3.164 7.96-.002 6.206-4.855 11.246-10.804 11.246h-.004s0 0 0 0c-1.807 0-3.583-.472-5.161-1.367l-.054-.03-.06.015-5.556 1.517L1.7 17.132zm9.342 3.896h.004c5.107 0 9.252-4.323 9.255-9.623 0-2.57-.96-4.987-2.706-6.806-1.747-1.82-4.072-2.823-6.545-2.824h0c-5.11 0-9.257 4.322-9.259 9.622 0 1.817.488 3.587 1.414 5.119l.184.304-.904 3.434-.066.252.25-.069 3.384-.923.276.17h0a8.976 8.976 0 004.713 1.344z" fill="#fff" stroke="#2D2D2D" stroke-width=".3"/></svg><svg fill="none" viewBox="0 0 22 9" id="arrow-left" xmlns="http://www.w3.org/2000/svg"><path d="M22 4.5H1m0 0L5.941 1M1 4.5L5.941 8" stroke="#fff"/></svg><svg fill="none" viewBox="0 0 22 9" id="arrow-left-black" xmlns="http://www.w3.org/2000/svg"><path d="M22 4.5H1m0 0L5.94 1M1 4.5L5.94 8" stroke="#2D2D2D"/></svg><svg fill="none" viewBox="0 0 22 9" id="arrow_right" xmlns="http://www.w3.org/2000/svg"><path d="M0 4.5h21m0 0L16.059 1M21 4.5L16.059 8" stroke="#fff"/></svg><svg fill="none" viewBox="0 0 22 9" id="arrow_right-black" xmlns="http://www.w3.org/2000/svg"><path d="M0 4.5h21m0 0L16.059 1m4.94 3.5L16.06 8" stroke="#2D2D2D"/></svg><svg fill="none" viewBox="0 0 23 23" id="instagram" xmlns="http://www.w3.org/2000/svg"><mask id="fa" fill="#fff"><path fill-rule="evenodd" clip-rule="evenodd" d="M5.579 11.47a5.896 5.896 0 1011.792 0 5.897 5.897 0 00-11.792 0zm2.064.002a3.83 3.83 0 117.66.001 3.83 3.83 0 01-7.66-.001zM18.98 5.359a1.375 1.375 0 10-2.75 0 1.375 1.375 0 002.75 0zM19 .604A8.427 8.427 0 0016.214.07C14.985.015 14.596 0 11.48 0 8.367 0 7.967 0 6.75.069a8.36 8.36 0 00-2.785.535A5.866 5.866 0 00.606 3.961 8.396 8.396 0 00.07 6.749C.017 7.974 0 8.364 0 11.479s0 3.511.071 4.732A8.41 8.41 0 00.606 19a5.879 5.879 0 003.36 3.356c.887.347 1.83.543 2.786.574 1.228.053 1.617.07 4.732.07 3.114 0 3.513 0 4.731-.07.953-.02 1.896-.2 2.788-.535a5.882 5.882 0 003.359-3.357 8.4 8.4 0 00.534-2.788c.055-1.226.071-1.616.071-4.73 0-3.116 0-3.512-.071-4.732a8.392 8.392 0 00-.537-2.827A5.873 5.873 0 0019.001.604zM20.41 18.27a3.81 3.81 0 01-2.183 2.182 6.359 6.359 0 01-2.13.396c-1.212.056-1.554.07-4.66.07-3.11 0-3.428 0-4.662-.07a6.325 6.325 0 01-2.129-.396 3.806 3.806 0 01-2.192-2.182 6.479 6.479 0 01-.397-2.128c-.055-1.212-.068-1.554-.068-4.66 0-3.108 0-3.425.068-4.661a6.423 6.423 0 01.397-2.151 3.808 3.808 0 012.192-2.184 6.39 6.39 0 012.129-.396c1.213-.055 1.553-.07 4.661-.07 3.108 0 3.427 0 4.66.07a6.328 6.328 0 012.13.396A3.815 3.815 0 0120.41 4.67c.25.68.385 1.401.397 2.128.054 1.213.069 1.553.069 4.66s0 3.441-.055 4.66h-.014a6.43 6.43 0 01-.397 2.152z"/></mask><path fill-rule="evenodd" clip-rule="evenodd" d="M5.579 11.47a5.896 5.896 0 1011.792 0 5.897 5.897 0 00-11.792 0zm2.064.002a3.83 3.83 0 117.66.001 3.83 3.83 0 01-7.66-.001zM18.98 5.359a1.375 1.375 0 10-2.75 0 1.375 1.375 0 002.75 0zM19 .604A8.427 8.427 0 0016.214.07C14.985.015 14.596 0 11.48 0 8.367 0 7.967 0 6.75.069a8.36 8.36 0 00-2.785.535A5.866 5.866 0 00.606 3.961 8.396 8.396 0 00.07 6.749C.017 7.974 0 8.364 0 11.479s0 3.511.071 4.732A8.41 8.41 0 00.606 19a5.879 5.879 0 003.36 3.356c.887.347 1.83.543 2.786.574 1.228.053 1.617.07 4.732.07 3.114 0 3.513 0 4.731-.07.953-.02 1.896-.2 2.788-.535a5.882 5.882 0 003.359-3.357 8.4 8.4 0 00.534-2.788c.055-1.226.071-1.616.071-4.73 0-3.116 0-3.512-.071-4.732a8.392 8.392 0 00-.537-2.827A5.873 5.873 0 0019.001.604zM20.41 18.27a3.81 3.81 0 01-2.183 2.182 6.359 6.359 0 01-2.13.396c-1.212.056-1.554.07-4.66.07-3.11 0-3.428 0-4.662-.07a6.325 6.325 0 01-2.129-.396 3.806 3.806 0 01-2.192-2.182 6.479 6.479 0 01-.397-2.128c-.055-1.212-.068-1.554-.068-4.66 0-3.108 0-3.425.068-4.661a6.423 6.423 0 01.397-2.151 3.808 3.808 0 012.192-2.184 6.39 6.39 0 012.129-.396c1.213-.055 1.553-.07 4.661-.07 3.108 0 3.427 0 4.66.07a6.328 6.328 0 012.13.396A3.815 3.815 0 0120.41 4.67c.25.68.385 1.401.397 2.128.054 1.213.069 1.553.069 4.66s0 3.441-.055 4.66h-.014a6.43 6.43 0 01-.397 2.152z" fill="#fff"/><path d="M15.303 11.472h.4-.4zM19.002.604l.144-.373h-.003L19 .603zM16.213.07l-.018.4h.01l.008-.4zm-9.464 0l.008.4h.015l-.023-.4zM3.964.604L3.823.23 3.82.231l.144.373zM.606 3.961l-.373-.145-.002.004.375.14zM.07 6.749l.4.017v-.01l-.4-.008zm0 9.462l.4-.008v-.016l-.4.024zM.606 19l-.375.14.002.004L.606 19zm3.36 3.356l.145-.373h-.002l-.144.373zm2.786.574l.017-.4h-.004l-.013.4zm9.463 0l-.008-.4h-.015l.023.4zm2.788-.535l.14.375.005-.002-.145-.373zm3.359-3.357l.373.145.001-.004-.374-.141zm.534-2.788l-.4-.018v.01l.4.008zm0-9.462l-.4.007v.016l.4-.023zm-.537-2.827l.374-.142-.001-.003-.373.145zm-1.95 14.308l.373.145.002-.006-.375-.14zm-2.183 2.182l.139.375.004-.002-.143-.373zm-2.13.396l-.006-.4h-.013l.018.4zm-9.322 0l.022-.399H6.78l-.005.4zm-2.129-.396l-.143.374h.003l.14-.374zm-2.192-2.182l-.376.138.003.006.373-.144zm-.397-2.128l.4-.007v-.012l-.4.019zm0-9.321l.4.022v-.017l-.4-.005zm.397-2.151l-.374-.145-.002.006.376.139zm2.192-2.184l-.139-.375-.004.002.143.373zm2.129-.396l.005.4h.013l-.018-.4zm9.322 0l-.023.4h.018l.005-.4zm2.13.396l.143-.373-.004-.001-.14.374zm2.183 2.184l.376-.138-.003-.007-.373.145zm.397 2.128l-.4.006v.012l.4-.018zm.014 9.32v.4h.382l.017-.381-.4-.018zm-.014 0h-.4v.4h.4v-.4zm0 0h.4l-.8-.006.4.005zM5.179 11.47a6.296 6.296 0 006.296 6.296v-.8a5.496 5.496 0 01-5.496-5.496h-.8zm6.296 6.296a6.297 6.297 0 006.296-6.296h-.8a5.497 5.497 0 01-5.496 5.496v.8zm6.296-6.296a6.297 6.297 0 00-6.296-6.296v.8a5.497 5.497 0 015.496 5.496h.8zm-6.296-6.296a6.295 6.295 0 00-6.296 6.296h.8a5.495 5.495 0 015.496-5.496v-.8zm-3.432 6.297a3.43 3.43 0 013.432-3.43v-.8a4.23 4.23 0 00-4.232 4.23h.8zm3.432-3.43a3.428 3.428 0 013.428 3.43h.8a4.228 4.228 0 00-4.228-4.23v.8zm3.428 3.43a3.429 3.429 0 01-3.428 3.43v.8a4.229 4.229 0 004.229-4.23h-.8zm-3.428 3.43a3.43 3.43 0 01-3.432-3.43h-.8a4.23 4.23 0 004.232 4.23v-.8zm7.906-9.543c0-.98-.795-1.775-1.775-1.775v.8c.538 0 .974.436.974.975h.8zm-1.775-1.775c-.98 0-1.775.794-1.775 1.775h.8c0-.539.436-.975.975-.975v-.8zM15.83 5.359c0 .98.794 1.774 1.775 1.774v-.8a.975.975 0 01-.975-.974h-.8zm1.775 1.774c.98 0 1.774-.794 1.774-1.774h-.8a.975.975 0 01-.974.974v.8zM19.142.23a8.827 8.827 0 00-2.92-.561l-.018.8c.91.02 1.808.19 2.656.51l.282-.749zM16.23-.33c-1.236-.055-1.632-.07-4.749-.07v.8c3.112 0 3.495.015 4.714.068l.035-.799zM11.481-.4c-3.112 0-3.523 0-4.754.07l.045.798C7.977.4 8.364.4 11.482.4v-.8zm-4.74.069A8.76 8.76 0 003.823.23l.282.749a7.96 7.96 0 012.652-.51l-.016-.8zM3.82.23A6.266 6.266 0 00.233 3.816l.746.29A5.466 5.466 0 014.108.977L3.82.23zM.23 3.821a8.796 8.796 0 00-.56 2.92l.8.016c.019-.91.19-1.805.51-2.655L.23 3.82zm-.56 2.91C-.382 7.966-.4 8.36-.4 11.48h.8c0-3.113.017-3.495.071-4.714l-.8-.035zM-.4 11.48c0 3.111 0 3.52.072 4.754l.799-.047C.4 14.981.4 14.597.4 11.48h-.8zm.072 4.739a8.81 8.81 0 00.56 2.921l.748-.28a8.01 8.01 0 01-.509-2.657l-.8.016zm.56 2.925a6.279 6.279 0 003.589 3.585l.288-.746a5.479 5.479 0 01-3.13-3.128l-.746.29zM3.82 22.73a8.8 8.8 0 002.92.6l.025-.799a8 8 0 01-2.654-.547l-.291.746zm2.915.6c1.236.054 1.631.071 4.749.071v-.8c-3.112 0-3.495-.017-4.715-.07l-.034.8zm4.749.071c3.112 0 3.523 0 4.754-.07l-.046-.8c-1.204.07-1.591.07-4.708.07v.8zm4.74-.07a8.841 8.841 0 002.92-.56l-.28-.75c-.851.32-1.75.492-2.657.51l.017.8zm2.924-.561a6.283 6.283 0 003.587-3.586l-.746-.29a5.482 5.482 0 01-3.13 3.13l.29.745zm3.588-3.59c.351-.936.54-1.922.56-2.92l-.8-.017a7.998 7.998 0 01-.509 2.655l.749.282zm.56-2.91c.055-1.236.071-1.632.071-4.75h-.8c0 3.113-.016 3.495-.07 4.713l.799.036zm.071-4.75c0-3.113 0-3.52-.072-4.754l-.798.046c.07 1.207.07 1.59.07 4.708h.8zm-.071-4.738a8.789 8.789 0 00-.563-2.962l-.748.283a7.99 7.99 0 01.511 2.693l.8-.014zm-.564-2.965A6.273 6.273 0 0019.145.231l-.288.747a5.473 5.473 0 013.13 3.128l.745-.29zm-2.696 14.308a3.41 3.41 0 01-1.954 1.953l.287.747a4.21 4.21 0 002.413-2.41l-.746-.29zm-1.95 1.952a5.96 5.96 0 01-1.996.372l.011.8a6.76 6.76 0 002.264-.422l-.279-.75zm-2.009.372c-1.203.055-1.537.07-4.642.07v.8c3.11 0 3.458-.015 4.679-.071l-.037-.8zm-4.642.07c-3.111 0-3.417 0-4.639-.07l-.045.799c1.248.07 1.577.07 4.684.07v-.8zm-4.656-.07a5.925 5.925 0 01-1.994-.372l-.28.75c.725.27 1.492.412 2.264.421l.01-.8zm-1.991-.37a3.406 3.406 0 01-1.962-1.953l-.746.288a4.206 4.206 0 002.422 2.412l.286-.748zm-1.96-1.947a6.08 6.08 0 01-.372-1.997l-.8.013c.012.772.156 1.537.421 2.26l.751-.276zm-.372-2.009c-.055-1.202-.068-1.537-.068-4.641h-.8c0 3.108.013 3.457.068 4.678l.8-.037zm-.068-4.641c0-3.11 0-3.416.067-4.64l-.798-.043c-.069 1.249-.069 1.577-.069 4.683h.8zm.068-4.656c.008-.69.133-1.371.372-2.018l-.75-.277a6.823 6.823 0 00-.422 2.285l.8.01zm.37-2.012a3.408 3.408 0 011.962-1.954l-.286-.747A4.208 4.208 0 002.08 4.524l.746.289zM4.784 2.86a5.99 5.99 0 011.995-.371l-.011-.8a6.79 6.79 0 00-2.262.421l.278.75zm2.008-.372c1.204-.054 1.538-.07 4.643-.07v-.8c-3.11 0-3.458.016-4.68.071l.037.8zm4.643-.07c3.11 0 3.418 0 4.638.07l.045-.799c-1.246-.07-1.577-.07-4.683-.07v.8zm4.656.07a5.927 5.927 0 011.995.372l.279-.75A6.728 6.728 0 0016.1 1.69l-.01.8zm1.99.37a3.415 3.415 0 011.955 1.955l.746-.289a4.215 4.215 0 00-2.413-2.412l-.287.747zm1.952 1.948c.235.64.362 1.316.373 1.997l.8-.012a6.876 6.876 0 00-.422-2.26l-.75.275zm.373 2.009c.054 1.204.069 1.538.069 4.643h.8c0-3.11-.015-3.458-.07-4.68l-.799.037zm.069 4.643c0 3.108 0 3.433-.055 4.642l.8.036c.055-1.23.055-1.573.055-4.678h-.8zm.345 4.26h-.014v.8h.014v-.8zm.386.4v-.002h-.8v.002h.8zm-.8-.006a6.032 6.032 0 01-.372 2.018l.75.278a6.831 6.831 0 00.422-2.287l-.8-.01z" fill="#2D2D2D" mask="url(#fa)"/></svg><svg fill="none" viewBox="0 0 30 30" id="logo" xmlns="http://www.w3.org/2000/svg"><path d="M0 0v29.035h29.02V0H0zm8.04 15.124h5.864V27.82H1.594L8.04 15.124zM1.212 25.892V15.124H6.68L1.213 25.892zm12.69-11.982H8.657l5.248-10.34v10.34zm1.214-10.34l5.248 10.34h-5.248V3.57zm0 11.554h5.864l6.444 12.697H15.117V15.124zm7.225 0h5.465v10.768l-5.465-10.768zm5.465-1.214h-6.082L15.282 1.214h12.525V13.91zM13.74 1.214L7.295 13.91H1.213V1.214H13.74z" fill="#fff"/></svg><svg fill="none" viewBox="0 0 92 15" id="logo-text" xmlns="http://www.w3.org/2000/svg"><path d="M14.14 14.473h-1.273l-2.037-4.252H4.016l-2.017 4.252H.725L7.423.404l6.718 14.07zm-3.859-5.408L7.423 3.049l-2.86 6.016h5.718zM19.976.561c3.017 0 4.819 1.47 4.819 4.056 0 2.528-1.803 4.056-4.819 4.056h-2.429v5.8h-1.213V.561h3.642zm3.545 4.056c0-1.9-1.174-2.959-3.545-2.959h-2.429v5.898h2.43c2.37 0 3.544-1.038 3.544-2.94zM45.25.561c2.722 0 4.153 1.665 4.153 3.469a3.209 3.209 0 01-1.685 3.056 3.487 3.487 0 012.605 3.566c0 2.547-2.057 3.821-5.15 3.821H41V.561h4.25zm2.938 3.644c0-1.372-.999-2.527-2.761-2.527h-3.212v5.035h3.212c1.762 0 2.761-1.077 2.761-2.508zm.92 6.388c0-1.606-1.097-2.801-3.388-2.801h-3.505v5.564H45.7c2.292 0 3.408-1.136 3.408-2.763zM52.83.561h1.215v8.817c0 2.744 1.703 4.096 4.23 4.096 2.545 0 4.25-1.352 4.25-4.096V.561h1.213v8.758c0 3.39-2.25 5.31-5.463 5.31-3.211 0-5.445-1.92-5.445-5.31V.561zM68.771 8.183v6.29h-1.214V.561h3.682c2.859 0 4.523 1.43 4.523 3.821 0 2.136-1.39 3.546-3.778 3.78l5.267 6.311h-1.507l-5.17-6.29H68.77zm5.72-3.801c0-1.724-1.079-2.685-3.29-2.685h-2.43v5.369h2.43c2.211 0 3.29-.98 3.29-2.684zM84.713.404a7.106 7.106 0 016.57 4.39 7.117 7.117 0 01-5.181 9.7 7.106 7.106 0 01-7.298-3.025 7.115 7.115 0 01-1.199-3.952 7.004 7.004 0 014.37-6.602c.87-.352 1.8-.526 2.738-.51zm0 1.156a5.952 5.952 0 00-5.57 3.61 5.96 5.96 0 004.274 8.183 5.951 5.951 0 006.142-2.516 5.96 5.96 0 001.01-3.32 5.79 5.79 0 00-3.58-5.522 5.782 5.782 0 00-2.276-.435z" fill="#fff"/><path d="M29 8.5h6" stroke="#fff"/></svg><svg fill="none" viewBox="0 0 37 39" id="roller" xmlns="http://www.w3.org/2000/svg"><path d="M34.824 5.16H32.78v-3.1C32.78.884 31.866 0 30.653 0H2.176C.966 0 .02.905.02 2.06v7.53c0 1.196.967 2.17 2.156 2.17h28.477c1.173 0 2.127-.974 2.127-2.17V6.6h2.044c.415 0 .716.262.716.624v7.966c0 .37-.308.65-.716.65H18.252a2.153 2.153 0 00-2.152 2.149V19.2h-1.068a.72.72 0 00-.68.484l-1.813 5.232a.72.72 0 00-.04.236V38.28c0 .398.323.72.72.72h7.08a.72.72 0 00.72-.72V25.152a.72.72 0 00-.036-.228l-1.746-5.232a.72.72 0 00-.683-.492H17.54v-1.211c0-.391.32-.709.712-.709h16.572c1.21 0 2.156-.918 2.156-2.09V7.224c0-1.158-.947-2.064-2.156-2.064zM31.34 9.59c0 .35-.262.73-.687.73H2.176a.733.733 0 01-.716-.73V2.06c0-.365.294-.62.716-.62h28.477c.411 0 .687.249.687.62v7.53zM19.58 25.268V37.56h-5.64V25.273l1.605-4.633h2.49l1.545 4.629z" fill="#D3D3D3"/></svg></svg>